<svg width="502" height="76" viewBox="0 0 502 76" fill="none" xmlns="http://www.w3.org/2000/svg">
<g clip-path="url(#clip0_5_5)">
<path d="M39.2306 50.128C36.0224 50.128 33.2371 51.8934 31.7245 54.4869C30.9748 55.7728 30.5127 57.2549 30.5127 58.8459C30.5127 63.6495 34.4227 67.5638 39.2306 67.5638C44.0385 67.5638 47.9485 63.6495 47.9485 58.8459C47.9485 57.2549 47.4908 55.7728 46.7367 54.4869C45.2241 51.8934 42.4431 50.128 39.2306 50.128Z" fill="#A441EB"/>
<path d="M100.256 50.128C97.0478 50.128 94.2625 51.8934 92.7499 54.4869C92.0002 55.7728 91.5381 57.2549 91.5381 58.8459C91.5381 63.6495 95.4481 67.5638 100.256 67.5638C105.064 67.5638 108.974 63.6495 108.974 58.8459C108.974 57.2549 108.516 55.7728 107.762 54.4869C106.249 51.8934 103.469 50.128 100.256 50.128Z" fill="#A441EB"/>
<path d="M126.41 41.4101V37.0511L100.256 29.5755L69.7433 10.8974H21.7948V15.2564H47.9485V19.6153H-1.52588e-05V23.9743H52.3075V28.3332H8.7179V32.6922H30.5127V37.0511H21.7948V41.4101H4.35894V45.7691H26.1537V50.128H21.7948V54.487H8.7179V58.8459H26.1537C26.1537 57.3116 26.4675 55.8557 26.9557 54.487C28.7603 49.4219 33.5465 45.7691 39.2306 45.7691C44.919 45.7691 49.7009 49.4219 51.5055 54.487C51.9893 55.8557 52.3075 57.3116 52.3075 58.8459H87.1791C87.1791 57.3116 87.4929 55.8557 87.9811 54.487C89.7857 49.4219 94.5719 45.7691 100.256 45.7691C105.944 45.7691 110.726 49.4219 112.531 54.487C113.015 55.8557 113.333 57.3116 113.333 58.8459H126.41V54.487H130.769V41.4101H126.41Z" fill="#A441EB"/>
<path d="M226.415 72.4897C223.54 73.6533 220.785 74.4233 218.15 74.7998C215.514 75.1763 212.588 75.3645 209.371 75.3645C203.553 75.3645 198.453 74.4404 194.072 72.5923C189.691 70.7441 186.046 68.16 183.137 64.8402C180.228 61.5204 178.038 57.5671 176.566 52.9811C175.094 48.395 174.358 43.3639 174.358 37.8876C174.358 32.4114 175.111 27.3458 176.617 22.6915C178.123 18.0372 180.331 14.0323 183.24 10.6784C186.149 7.32443 189.76 4.70618 194.072 2.8236C198.385 0.941031 203.313 0 208.858 0C212.075 0 214.984 0.308029 217.585 0.924088C220.186 1.54015 222.719 2.39575 225.183 3.491L220.973 17.147C219.604 16.5309 218.081 15.9833 216.404 15.5042C214.727 15.025 212.725 14.7854 210.398 14.7854C198.213 14.7854 192.121 22.4862 192.121 37.8876C192.121 45.6228 193.696 51.3382 196.845 55.0346C199.993 58.7309 204.853 60.5791 211.425 60.5791C213.615 60.5791 215.549 60.4251 217.226 60.1171C218.903 59.8091 220.563 59.347 222.206 58.731L226.415 72.4897ZM260.401 50.7223C259.717 50.5854 258.998 50.4996 258.245 50.4654C257.492 50.4312 256.842 50.4141 256.294 50.4141C253.419 50.4141 251.092 50.859 249.312 51.7489C247.532 52.6388 246.643 54.1789 246.643 56.3693C246.643 57.7383 246.968 58.8164 247.618 59.6036C248.268 60.3908 249.073 60.9727 250.031 61.3492C250.989 61.7257 251.999 61.9482 253.06 62.0167C254.121 62.0852 255.028 62.1194 255.781 62.1194C257.15 62.1194 258.69 61.9482 260.401 61.606V50.7223ZM255.062 39.4279C255.61 39.4279 256.345 39.4451 257.269 39.4793C258.193 39.5135 259.237 39.5648 260.401 39.6333C260.332 36.9637 259.391 35.2354 257.577 34.4482C255.763 33.6609 253.419 33.2674 250.544 33.2674C248.97 33.2674 247.156 33.4556 245.102 33.8321C243.049 34.2086 240.824 34.7733 238.428 35.5263L236.785 29.8791C236.58 29.1261 236.289 28.0309 235.912 26.5934C235.536 25.1559 235.279 24.0265 235.142 23.2051C238.565 22.0415 241.799 21.2029 244.845 20.6895C247.891 20.1761 250.647 19.9194 253.111 19.9194C260.366 19.9194 265.979 21.6478 269.95 25.1046C273.92 28.5614 275.905 34.0888 275.905 41.6869V71.7711C273.235 72.524 270.155 73.2599 266.664 73.9786C263.173 74.6973 259.408 75.0567 255.37 75.0567C251.81 75.0567 248.576 74.7487 245.667 74.1326C242.757 73.5166 240.259 72.4898 238.171 71.0523C236.083 69.6149 234.475 67.7325 233.346 65.4051C232.216 63.0778 231.651 60.2369 231.651 56.883C231.651 53.5291 232.353 50.7224 233.756 48.4635C235.16 46.2046 236.974 44.4078 239.198 43.073C241.423 41.7382 243.921 40.797 246.694 40.2494C249.466 39.7018 252.255 39.4279 255.062 39.4279ZM304.347 22.4863C305.168 21.9387 306.315 21.4081 307.786 20.8948C309.258 20.3814 310.918 20.1247 312.766 20.1247C314.34 20.1247 315.624 20.1932 316.616 20.33C317.609 20.4669 318.105 20.5011 318.105 20.4326V34.0886C316.531 33.9517 314.991 33.9175 313.485 33.986C312.184 34.1229 310.832 34.3454 309.429 34.6534C308.026 34.9614 306.742 35.5262 305.579 36.3476C304.21 37.3059 303.234 38.6065 302.652 40.2493C302.07 41.8921 301.78 44.151 301.78 47.0259V74.3379H286.378V33.5753H278.061L284.633 20.5354H301.78V24.5398C302.122 24.2659 302.43 23.9921 302.704 23.7183C302.977 23.5129 303.251 23.2904 303.525 23.0509C303.799 22.8113 304.073 22.6231 304.347 22.4863ZM328.168 0.821514L345.007 0.821414V28.5441H366.877V0.821414H383.716V74.2351H366.877V42.9188C366.466 42.9873 366.089 43.0557 365.747 43.1242L364.515 43.3296H347.265L345.007 42.9189V74.2352H328.168V0.821514ZM395.421 20.6381L411.028 20.6379V48.5659C411.028 50.9616 411.233 52.9638 411.644 54.5725C412.054 56.1811 412.67 57.4474 413.492 58.3715C414.313 59.2956 415.323 59.9458 416.521 60.3223C417.719 60.6989 419.139 60.8871 420.782 60.8871C422.767 60.8871 424.547 60.7844 426.121 60.579L425.916 58.7309V20.6379H441.522V71.3601C438.99 72.25 435.961 73.0372 432.436 73.7217C428.91 74.4063 425.3 74.7485 421.603 74.7485C418.112 74.7485 414.775 74.4747 411.592 73.9271C408.409 73.3795 405.62 72.2159 403.224 70.4362C400.828 68.6565 398.929 66.0724 397.526 62.6841C396.122 59.2958 395.421 54.7267 395.421 48.9768V20.6381ZM469.656 2.15631L469.656 19.9193L469.142 22.0755C469.142 22.0071 469.827 21.7846 471.196 21.408C472.565 21.0315 474.447 20.8433 476.843 20.8433C480.403 20.8433 483.688 21.3739 486.7 22.4348C489.712 23.4958 492.296 25.1214 494.452 27.3118C496.608 29.5022 498.285 32.2917 499.483 35.68C500.681 39.0683 501.28 43.124 501.28 47.8471C501.28 51.5435 500.852 55.0175 499.997 58.2688C499.141 61.5201 497.721 64.3781 495.736 66.8423C493.751 69.3065 491.149 71.2574 487.932 72.6949C484.715 74.1323 480.745 74.8511 476.022 74.8511H473.301L468.475 74.6457L462.16 74.0296L454.973 72.7975V14.7853H446.451L453.022 2.25878L469.656 2.15631ZM474.584 61.0926C476.227 61.0926 477.785 60.8876 479.256 60.4769C480.728 60.0662 481.994 59.3474 483.055 58.3207C484.116 57.2939 484.972 55.9249 485.622 54.2136C486.272 52.5023 486.597 50.3803 486.597 47.8477C486.597 45.315 486.289 43.1416 485.673 41.3277C485.057 39.5138 484.236 38.042 483.209 36.9126C482.182 35.7832 480.967 34.9618 479.564 34.4484C478.161 33.935 476.672 33.6783 475.098 33.6783C474.276 33.6783 473.318 33.7468 472.223 33.8837C471.127 34.0205 470.272 34.1574 469.656 34.2943V60.6821C470.409 60.819 471.179 60.9217 471.966 60.9901C472.753 61.0586 473.626 61.0926 474.584 61.0926Z" fill="white"/>
</g>
<defs>
<clipPath id="clip0_5_5">
<rect width="501.28" height="75.3645" fill="white"/>
</clipPath>
</defs>
</svg>
